HIERARCHY
ROOT Hips
{
	OFFSET 0.00000 0.00000 0.00000
	CHANNELS 6 Xposition Yposition Zposition Zrotation Yrotation Xrotation 
	JOINT LHipJoint
	{
		OFFSET 0 0 0
		CHANNELS 3 Zrotation Yrotation Xrotation
		JOINT LeftHip
		{
			OFFSET 1.42746 -1.72089 0.83059
			CHANNELS 3 Zrotation Yrotation Xrotation
			JOINT LeftKnee
			{
				OFFSET 2.32949 -6.40022 0.00000
				CHANNELS 3 Zrotation Yrotation Xrotation
				JOINT LeftAnkle
				{
					OFFSET 2.54359 -6.98847 0.00000
					CHANNELS 3 Zrotation Yrotation Xrotation
					JOINT LeftToe
					{
						OFFSET 0.13146 -0.36118 2.00184
						CHANNELS 3 Zrotation Yrotation Xrotation
						End Site
						{
							OFFSET 0.00000 -0.00000 1.02854
						}
					}
				}
			}
		}
	}
	JOINT RHipJoint
	{
		OFFSET 0 0 0
		CHANNELS 3 Zrotation Yrotation Xrotation
		JOINT RightHip
		{
			OFFSET -1.40185 -1.72089 0.83060
			CHANNELS 3 Zrotation Yrotation Xrotation
			JOINT RightKnee
			{
				OFFSET -2.37192 -6.51680 0.00000
				CHANNELS 3 Zrotation Yrotation Xrotation
				JOINT RightAnkle
				{
					OFFSET -2.54841 -7.00172 0.00000
					CHANNELS 3 Zrotation Yrotation Xrotation
					JOINT RightToe
					{
						OFFSET -0.12890 -0.35415 1.86474
						CHANNELS 3 Zrotation Yrotation Xrotation
						End Site
						{
							OFFSET -0.00000 -0.00000 0.96145
						}
					}
				}
			}
		}
	}
	JOINT lowerback
	{
		OFFSET 0 0 0
		CHANNELS 3 Zrotation Yrotation Xrotation
		JOINT Chest
		{
			OFFSET -0.05681 1.94777 0.23412
			CHANNELS 3 Zrotation Yrotation Xrotation
			JOINT Chest2
			{
				OFFSET 0.02153 1.96861 0.02875
				CHANNELS 3 Zrotation Yrotation Xrotation
				JOINT lowerneck
				{
					OFFSET 0 0 0
					CHANNELS 3 Zrotation Yrotation Xrotation
					JOINT Neck
					{
						OFFSET -0.00504 1.72650 0.04960
						CHANNELS 3 Zrotation Yrotation Xrotation
						JOINT Head
						{
							OFFSET 0.04679 1.68267 -0.08069
							CHANNELS 3 Zrotation Yrotation Xrotation
							End Site
							{
								OFFSET 0.01603 1.78888 -0.03747
							}
						}
					}
				}
				JOINT LeftCollar
				{
					OFFSET 0 0 0
					CHANNELS 3 Zrotation Yrotation Xrotation
					JOINT LeftShoulder
					{
						OFFSET 3.06480 1.32946 -0.48278
CHANNELS 3 Zrotation Xrotation Yrotation
						JOINT LeftElbow
						{
OFFSET 0 -4.947620 -0.000000
CHANNELS 3 Zrotation Xrotation Yrotation
							JOINT LeftWrist
							{
OFFSET 0 -3.111440 -0.000030
CHANNELS 3 Zrotation Xrotation Yrotation
								JOINT lhand
								{
									OFFSET 0 0 0
CHANNELS 3 Zrotation Xrotation Yrotation
									JOINT LFingers
									{
OFFSET 0 -0.686390 -0.000000
CHANNELS 3 Zrotation Xrotation Yrotation
										End Site
										{
OFFSET 0 -0.553380 -0.000000
										}
									}
								}
								JOINT LThumb
								{
OFFSET 0 0.000000 0.000000
CHANNELS 3 Zrotation Xrotation Yrotation
									End Site
									{
OFFSET 0 -0.561830 0.561830
									}
								}
							}
						}
					}
				}
				JOINT RightCollar
				{
					OFFSET 0 0 0
					CHANNELS 3 Zrotation Yrotation Xrotation
					JOINT RightShoulder
					{
						OFFSET -3.34868 1.12889 -0.10712
CHANNELS 3 Zrotation Xrotation Yrotation
						JOINT RightElbow
						{
OFFSET 0 -4.775660 0.000940
CHANNELS 3 Zrotation Xrotation Yrotation
							JOINT RightWrist
							{
OFFSET 0 -3.214330 -0.000000
CHANNELS 3 Zrotation Xrotation Yrotation
								JOINT rhand
								{
									OFFSET 0 0 0
CHANNELS 3 Zrotation Xrotation Yrotation
									JOINT RFingers
									{
OFFSET 0 -0.625460 -0.003840
CHANNELS 3 Zrotation Xrotation Yrotation
										End Site
										{
OFFSET 0 -0.505650 -0.000000
										}
									}
								}
								JOINT RThumb
								{
OFFSET 0 0.000000 0.000000
CHANNELS 3 Zrotation Xrotation Yrotation
									End Site
									{
OFFSET 0 -0.511650 0.509530
									}
								}
							}
						}
					}
				}
			}
		}
	}
}
MOTION
Frames: 10
Frame Time: 0.008333333333333333
0.284475 16.551800 -7.535085 1.468631 -5.146326 19.228559 0.000000 0.000000 0.000000 -20.962273 -3.585685 -31.844076 3.219642 11.042324 32.422913 1.254424 -0.810272 -20.928302 0.491280 -4.494093 -12.471050 0.000000 0.000000 0.000000 16.690616 4.798413 -33.063950 -3.743249 -11.810748 35.065734 -1.628778 12.523865 -23.205616 -0.329238 3.687545 -10.199362 -1.982155 0.332964 -14.503649 -0.760668 0.775082 -3.129944 0.462959 0.358937 4.801456 -2.859306 -0.879811 -7.704899 -0.075696 -0.840819 8.200958 0.433802 -0.511539 4.085120 0.000000 0.000000 0.000000 87.604024 10.392395 57.212244 9.793562 -16.416068 1.416061 16.107652 29.277021 14.025842 0.000000 0.000000 0.000000 -7.125000 0.000000 0.000000 -7.736697 15.494129 -5.439296 0.000000 0.000000 0.000000 -43.876234 38.345826 80.879474 -111.950030 -58.098854 -78.887930 8.157599 -76.759229 53.766450 0.000000 0.000000 0.000000 7.125000 0.000000 0.000000 78.996093 68.762109 -55.854823
0.281511 16.552370 -7.537708 1.522385 -5.355921 19.174128 0.000000 0.000000 0.000000 -21.031252 -3.535131 -31.816411 3.210983 11.029052 32.377889 1.253491 -0.827606 -20.915659 0.440570 -4.259017 -11.806571 0.000000 0.000000 0.000000 16.619159 4.812052 -33.034326 -3.746513 -11.815244 35.081449 -1.627807 12.728737 -23.230937 -0.340006 3.747088 -10.366187 -1.885560 0.397454 -14.628494 -0.879655 0.857029 -3.051707 0.299884 0.399098 4.953649 -2.765999 -0.893897 -7.628744 -0.102625 -0.871262 8.123219 0.406488 -0.524028 4.041378 0.000000 0.000000 0.000000 87.717589 10.518039 56.166760 9.885238 -16.559865 1.442041 16.227116 28.290464 13.673330 0.000000 0.000000 0.000000 -7.125000 0.000000 0.000000 -7.651506 15.845765 -5.319977 0.000000 0.000000 0.000000 -43.585746 38.252567 80.758647 -111.766530 -58.131850 -78.732127 7.956045 -76.644498 53.804340 0.000000 0.000000 0.000000 7.125000 0.000000 0.000000 78.984080 68.838993 -55.942433
0.280450 16.554125 -7.536402 1.330909 -5.404842 19.196469 0.000000 0.000000 0.000000 -20.849328 -3.364133 -31.887045 3.218848 11.041147 32.418816 1.258312 -0.890730 -20.937757 0.454945 -4.327044 -11.998690 0.000000 0.000000 0.000000 16.858015 4.729447 -33.061116 -3.736427 -11.801178 35.032284 -1.607525 12.893970 -23.122961 -0.339551 3.744757 -10.359569 -1.615109 0.443896 -14.652167 -0.818819 0.874795 -3.029358 0.214752 0.410659 4.993174 -2.904600 -0.887775 -7.564424 0.042468 -0.864571 7.913340 0.480187 -0.516108 3.956029 0.000000 0.000000 0.000000 87.680736 10.581345 55.442947 9.891188 -16.569218 1.443765 16.744854 27.877250 13.022968 0.000000 0.000000 0.000000 -7.125000 0.000000 0.000000 -7.289683 16.471806 -4.964350 0.000000 0.000000 0.000000 -43.586639 38.352689 80.697981 -112.108789 -58.069959 -79.022717 7.703545 -76.091193 54.038870 0.000000 0.000000 0.000000 7.125000 0.000000 0.000000 79.432473 68.983004 -56.565558
0.274060 16.554295 -7.537453 1.516051 -5.115780 19.212029 0.000000 0.000000 0.000000 -20.992062 -3.427714 -31.863819 3.208716 11.025586 32.366146 1.264166 -1.135857 -20.916584 0.448484 -4.296467 -11.912248 0.000000 0.000000 0.000000 16.760624 4.499091 -33.147307 -3.747164 -11.816129 35.084644 -1.619546 12.861918 -23.197649 -0.330811 3.696513 -10.224403 -1.746106 0.263316 -14.698304 -0.776503 0.652412 -3.142316 0.291842 0.300377 4.900028 -3.041313 -0.895773 -7.135556 0.076715 -0.879394 7.768286 0.515558 -0.524423 3.821039 0.000000 0.000000 0.000000 87.619216 10.699787 54.509603 9.907180 -16.594284 1.448312 16.888693 27.564194 12.559378 0.000000 0.000000 0.000000 -7.125000 0.000000 0.000000 -7.186568 16.938189 -4.819487 0.000000 0.000000 0.000000 -43.849445 38.494181 80.918936 -112.207616 -58.051974 -79.106503 8.119207 -76.614010 54.312958 0.000000 0.000000 0.000000 7.125000 0.000000 0.000000 80.324196 68.910185 -57.348708
0.270417 16.553041 -7.533619 1.586965 -5.354526 19.166330 0.000000 0.000000 0.000000 -21.092021 -3.470432 -31.718076 3.198942 11.010395 32.314969 1.255510 -0.774088 -20.948556 0.473172 -4.411294 -12.236868 0.000000 0.000000 0.000000 16.676541 4.411585 -33.183807 -3.756482 -11.829087 35.130039 -1.600516 13.164060 -23.122405 -0.302261 3.533911 -9.769053 -1.918726 0.311035 -14.603624 -0.728401 0.735783 -3.179469 0.454400 0.340241 4.804759 -3.214549 -0.953386 -7.286764 0.130421 -0.934874 8.059019 0.561073 -0.558015 3.957684 0.000000 0.000000 0.000000 87.559422 10.330277 55.932933 9.851890 -16.507522 1.432616 16.555801 28.838694 13.130002 0.000000 0.000000 0.000000 -7.125000 0.000000 0.000000 -7.420993 16.376963 -5.070664 0.000000 0.000000 0.000000 -43.997563 38.600225 80.905301 -112.383475 -58.019580 -79.255787 8.137752 -76.632478 54.531039 0.000000 0.000000 0.000000 7.125000 0.000000 0.000000 80.875780 68.954501 -57.951571
0.261879 16.551135 -7.534133 1.398436 -5.418342 19.261709 0.000000 0.000000 0.000000 -20.803790 -3.610464 -31.813244 3.211007 11.029028 32.377909 1.236746 -0.504298 -20.871437 0.508802 -4.571950 -12.691752 0.000000 0.000000 0.000000 16.845625 4.768173 -33.161233 -3.748275 -11.817697 35.089975 -1.606301 13.020260 -23.135695 -0.309661 3.577701 -9.891578 -2.124322 0.312309 -14.002717 -0.425525 0.727802 -3.633330 0.878804 0.344646 3.993155 -3.323667 -0.981594 -7.328855 -0.055703 -0.936326 8.617877 0.518207 -0.577578 4.165595 0.000000 0.000000 0.000000 87.343547 10.301115 55.786381 9.831407 -16.475450 1.426754 16.252192 29.076158 13.865354 0.000000 0.000000 0.000000 -7.125000 0.000000 0.000000 -7.636334 15.646440 -5.342106 0.000000 0.000000 0.000000 -44.672320 39.103659 81.346210 -112.454681 -58.006354 -79.316143 8.039621 -76.652648 54.749672 0.000000 0.000000 0.000000 7.125000 0.000000 0.000000 81.375445 69.035735 -58.553078
0.258609 16.552553 -7.524272 1.456973 -5.482770 19.154511 0.000000 0.000000 0.000000 -20.869948 -3.596185 -31.633519 3.211178 11.029313 32.378955 1.254425 -0.464955 -21.034550 0.491682 -4.495685 -12.475625 0.000000 0.000000 0.000000 16.802787 4.708922 -33.010103 -3.748605 -11.818109 35.091533 -1.616351 12.961586 -23.192966 -0.321294 3.643259 -10.075056 -2.280271 0.286876 -13.805691 -0.361194 0.705243 -3.747251 1.027711 0.336049 3.764055 -3.191162 -0.867853 -7.428775 -0.198117 -0.777977 8.911133 0.455996 -0.505555 4.286047 0.000000 0.000000 0.000000 87.326245 10.335115 55.786496 9.818713 -16.455495 1.423189 16.248610 29.273533 13.812340 0.000000 0.000000 0.000000 -7.125000 0.000000 0.000000 -7.638202 15.701144 -5.334319 0.000000 0.000000 0.000000 -44.862791 39.281825 81.474179 -112.463420 -58.004701 -79.323584 8.129158 -76.979749 55.254557 0.000000 0.000000 0.000000 7.125000 0.000000 0.000000 82.689965 69.111078 -59.966165
0.254460 16.551295 -7.523427 1.386247 -5.505162 19.130580 0.000000 0.000000 0.000000 -20.761548 -3.623650 -31.583453 3.208675 11.025424 32.365746 1.250460 -0.463710 -21.001686 0.452079 -4.312121 -11.956651 0.000000 0.000000 0.000000 16.894937 4.721833 -32.955702 -3.739373 -11.805282 35.046463 -1.603300 12.960484 -23.105844 -0.337979 3.735746 -10.334439 -1.827735 0.336213 -14.714204 -0.614516 0.752216 -3.128478 0.527070 0.347672 4.918250 -2.968997 -0.849755 -7.802643 0.019017 -0.790962 8.541586 0.488105 -0.489614 4.228008 0.000000 0.000000 0.000000 87.603131 10.281754 56.470705 9.816379 -16.451821 1.422484 16.200971 29.138577 14.041574 0.000000 0.000000 0.000000 -7.125000 0.000000 0.000000 -7.673181 15.470063 -5.397864 0.000000 0.000000 0.000000 -43.883734 38.521584 80.651069 -112.240604 -58.045915 -79.134629 7.770048 -76.566659 55.493809 0.000000 0.000000 0.000000 7.125000 0.000000 0.000000 83.139069 69.277164 -60.630930
0.250763 16.552955 -7.515277 1.382376 -5.425642 19.108213 0.000000 0.000000 0.000000 -20.704118 -3.733751 -31.489068 3.208135 11.024602 32.362885 1.254845 -0.474269 -21.035445 0.417067 -4.145259 -11.485607 0.000000 0.000000 0.000000 16.963675 4.558052 -32.918294 -3.730288 -11.792654 35.002295 -1.608616 13.029584 -23.152934 -0.332917 3.707949 -10.256353 -1.686233 0.308247 -15.076746 -0.668154 0.708318 -2.945209 0.386329 0.323809 5.313112 -2.808556 -0.880106 -7.764680 -0.087856 -0.842441 8.416570 0.420409 -0.513625 4.173934 0.000000 0.000000 0.000000 87.600868 10.510594 55.329171 9.873077 -16.540846 1.438635 16.243820 27.863213 13.642604 0.000000 0.000000 0.000000 -7.125000 0.000000 0.000000 -7.639769 15.875786 -5.306516 0.000000 0.000000 0.000000 -43.599954 38.276932 80.370448 -112.237257 -58.046510 -79.131717 8.100317 -76.962454 55.929688 0.000000 0.000000 0.000000 7.125000 0.000000 0.000000 84.398622 69.244344 -61.869986
0.244195 16.552715 -7.517042 1.278124 -5.476474 19.155853 0.000000 0.000000 0.000000 -20.567506 -3.735524 -31.538051 3.210163 11.027752 32.373559 1.242139 -0.195687 -21.016825 0.481194 -4.448537 -12.342056 0.000000 0.000000 0.000000 17.078935 4.683439 -32.934851 -3.734813 -11.798869 35.024164 -1.601292 13.010764 -23.101225 -0.315042 3.608349 -9.977375 -1.900482 0.337533 -14.455671 -0.421234 0.743516 -3.398987 0.765737 0.347459 4.488567 -2.813490 -1.012057 -7.584948 -0.496313 -0.982053 8.694666 0.275670 -0.605503 4.236856 0.000000 0.000000 0.000000 87.333980 10.609417 53.355006 9.933806 -16.635939 1.455953 16.192645 26.686189 13.421735 0.000000 0.000000 0.000000 -7.125000 0.000000 0.000000 -7.673054 16.106678 -5.291385 0.000000 0.000000 0.000000 -44.225999 38.912740 80.847441 -112.200569 -58.053268 -79.100521 8.921958 -77.657087 55.175991 0.000000 0.000000 0.000000 7.125000 0.000000 0.000000 82.857413 68.830530 -59.776630
